<svg xmlns="http://www.w3.org/2000/svg" xmlns:xlink="http://www.w3.org/1999/xlink" width="150" zoomAndPan="magnify" viewBox="0 0 112.5 74.999997" height="100" preserveAspectRatio="xMidYMid meet" version="1.0"><defs><g/><clipPath id="1dceb6484e"><path d="M 4.800781 28 L 49.800781 28 L 49.800781 52.441406 L 4.800781 52.441406 Z M 4.800781 28 " clip-rule="nonzero"/></clipPath><clipPath id="ef8b1100f1"><path d="M 8 23.191406 L 47 23.191406 L 47 50 L 8 50 Z M 8 23.191406 " clip-rule="nonzero"/></clipPath></defs><g clip-path="url(#1dceb6484e)"><path fill="#fba92c" d="M 47.109375 28.246094 L 47.101562 28.320312 L 45.421875 46.941406 L 45.351562 47.789062 L 44.503906 47.675781 L 43.871094 47.59375 C 42.609375 47.429688 41.367188 47.34375 40.179688 47.34375 C 34.457031 47.34375 30.976562 49.28125 29.414062 50.4375 L 27.300781 50.597656 L 27.296875 50.597656 L 25.183594 50.4375 C 23.621094 49.28125 20.140625 47.34375 14.414062 47.34375 C 13.226562 47.34375 11.988281 47.429688 10.722656 47.59375 L 10.09375 47.675781 L 9.246094 47.789062 L 9.171875 46.941406 L 7.496094 28.320312 L 7.488281 28.246094 L 4.816406 28.246094 L 7.542969 49.332031 L 25.5 52.441406 L 29.09375 52.441406 L 47.054688 49.332031 L 49.78125 28.246094 L 47.109375 28.246094 " fill-opacity="1" fill-rule="nonzero"/></g><g clip-path="url(#ef8b1100f1)"><path fill="#fba92c" d="M 10.539062 27.125 L 10.644531 28.195312 L 12.015625 42.675781 L 12.488281 42.75 C 12.578125 42.757812 19.207031 43.78125 23.679688 47.171875 C 21.53125 46.171875 18.492188 45.292969 14.453125 45.292969 C 13.394531 45.292969 12.28125 45.355469 11.09375 45.484375 L 9.546875 28.246094 L 9.453125 27.222656 C 9.832031 27.183594 10.191406 27.152344 10.539062 27.125 Z M 21.660156 27.082031 C 24.632812 28.65625 26.207031 30.460938 26.664062 31.046875 L 26.664062 48.316406 C 22.804688 43.621094 15.152344 41.972656 13.144531 41.613281 L 11.863281 28.070312 L 11.519531 24.460938 C 15.921875 24.671875 19.25 25.800781 21.660156 27.082031 Z M 27.933594 31.046875 C 28.390625 30.460938 29.964844 28.65625 32.9375 27.082031 C 35.347656 25.800781 38.675781 24.671875 43.078125 24.460938 L 42.734375 28.070312 L 41.453125 41.613281 C 39.441406 41.972656 31.792969 43.621094 27.933594 48.316406 Z M 43.953125 28.195312 L 44.054688 27.125 C 44.40625 27.152344 44.765625 27.183594 45.144531 27.222656 L 45.050781 28.246094 L 43.503906 45.484375 C 42.3125 45.355469 41.199219 45.292969 40.144531 45.292969 C 36.105469 45.292969 33.0625 46.171875 30.917969 47.171875 C 35.390625 43.78125 42.019531 42.757812 42.105469 42.75 L 42.582031 42.675781 Z M 9.984375 46.867188 L 10.621094 46.785156 C 14.957031 46.210938 18.351562 46.664062 20.890625 47.4375 C 21.140625 47.515625 21.378906 47.59375 21.613281 47.675781 C 21.847656 47.757812 22.070312 47.84375 22.285156 47.929688 C 22.503906 48.015625 22.710938 48.101562 22.914062 48.191406 C 23.914062 48.636719 24.714844 49.113281 25.324219 49.53125 C 25.449219 49.617188 25.5625 49.699219 25.667969 49.777344 L 28.925781 49.777344 C 29.03125 49.699219 29.148438 49.617188 29.269531 49.53125 C 29.882812 49.113281 30.683594 48.636719 31.683594 48.191406 C 31.886719 48.101562 32.09375 48.015625 32.308594 47.929688 C 32.527344 47.84375 32.75 47.757812 32.984375 47.675781 C 33.214844 47.59375 33.457031 47.515625 33.707031 47.4375 C 36.246094 46.664062 39.640625 46.210938 43.976562 46.785156 L 44.609375 46.867188 L 46.285156 28.246094 L 46.472656 26.136719 L 45.882812 26.070312 C 45.285156 26 44.714844 25.941406 44.171875 25.902344 L 44.429688 23.191406 L 43.734375 23.207031 C 37.707031 23.363281 33.527344 25.113281 30.820312 26.863281 C 29.046875 28.015625 27.90625 29.167969 27.300781 29.875 L 27.296875 29.871094 L 27.296875 29.875 C 26.691406 29.167969 25.550781 28.015625 23.773438 26.863281 C 21.070312 25.113281 16.890625 23.363281 10.859375 23.207031 L 10.167969 23.191406 L 10.425781 25.902344 C 9.882812 25.941406 9.3125 26 8.714844 26.070312 L 8.121094 26.136719 L 8.3125 28.246094 L 9.984375 46.867188 " fill-opacity="1" fill-rule="nonzero"/></g><g fill="#ffc1b2" fill-opacity="0.302"><g transform="translate(50.652141, 42.445798)"><g><path d="M 6.226562 -4.21875 C 6.195312 -4.242188 6.179688 -4.277344 6.179688 -4.316406 C 6.171875 -4.351562 6.179688 -4.382812 6.203125 -4.417969 C 6.34375 -4.617188 6.453125 -4.832031 6.527344 -5.066406 C 6.59375 -5.296875 6.636719 -5.53125 6.636719 -5.769531 C 6.636719 -6.070312 6.570312 -6.378906 6.453125 -6.675781 C 6.328125 -6.976562 6.144531 -7.242188 5.90625 -7.472656 C 5.664062 -7.707031 5.363281 -7.890625 5.007812 -8.039062 C 4.648438 -8.179688 4.234375 -8.253906 3.769531 -8.253906 L 1.121094 -8.253906 C 1.0625 -8.253906 1.019531 -8.230469 1.003906 -8.179688 C 0.980469 -8.128906 0.988281 -8.078125 1.03125 -8.046875 C 1.179688 -7.878906 1.261719 -7.679688 1.261719 -7.457031 L 1.261719 -0.796875 C 1.261719 -0.566406 1.179688 -0.367188 1.03125 -0.199219 C 0.996094 -0.148438 0.996094 -0.109375 1.019531 -0.0664062 C 1.039062 -0.015625 1.078125 0 1.136719 0 L 4.144531 0 C 4.609375 0 5.023438 -0.0664062 5.382812 -0.207031 C 5.738281 -0.347656 6.039062 -0.539062 6.277344 -0.773438 C 6.519531 -1.003906 6.703125 -1.261719 6.824219 -1.5625 C 6.941406 -1.851562 7.007812 -2.152344 7.007812 -2.464844 C 7.007812 -2.796875 6.933594 -3.113281 6.800781 -3.414062 C 6.667969 -3.710938 6.476562 -3.984375 6.226562 -4.21875 Z M 2.90625 -5.230469 L 2.90625 -6.320312 C 2.90625 -6.394531 2.929688 -6.460938 2.988281 -6.519531 C 3.046875 -6.570312 3.113281 -6.601562 3.195312 -6.601562 L 3.769531 -6.601562 C 3.976562 -6.601562 4.160156 -6.578125 4.316406 -6.527344 C 4.46875 -6.476562 4.601562 -6.417969 4.699219 -6.34375 C 4.800781 -6.261719 4.867188 -6.179688 4.917969 -6.078125 C 4.964844 -5.980469 4.992188 -5.871094 4.992188 -5.769531 C 4.992188 -5.5625 4.90625 -5.390625 4.75 -5.25 C 4.535156 -5.050781 4.203125 -4.949219 3.769531 -4.949219 L 3.195312 -4.949219 C 3.113281 -4.949219 3.046875 -4.972656 2.988281 -5.03125 C 2.929688 -5.082031 2.90625 -5.148438 2.90625 -5.230469 Z M 5.125 -1.941406 C 4.90625 -1.742188 4.574219 -1.644531 4.144531 -1.644531 L 3.195312 -1.644531 C 3.113281 -1.644531 3.046875 -1.667969 2.988281 -1.726562 C 2.929688 -1.777344 2.90625 -1.851562 2.90625 -1.933594 L 2.90625 -3.015625 C 2.90625 -3.089844 2.929688 -3.15625 2.988281 -3.214844 C 3.046875 -3.273438 3.113281 -3.304688 3.195312 -3.304688 L 4.144531 -3.304688 C 4.351562 -3.304688 4.535156 -3.28125 4.683594 -3.230469 C 4.832031 -3.179688 4.964844 -3.113281 5.066406 -3.039062 C 5.164062 -2.957031 5.238281 -2.875 5.289062 -2.773438 C 5.339844 -2.675781 5.363281 -2.566406 5.363281 -2.464844 C 5.363281 -2.265625 5.28125 -2.09375 5.125 -1.941406 Z M 5.125 -1.941406 "/></g></g></g><g fill="#ffc1b2" fill-opacity="0.302"><g transform="translate(58.325295, 42.445798)"><g><path d="M 6.277344 -6.957031 C 5.960938 -7.375 5.589844 -7.691406 5.171875 -7.914062 C 4.75 -8.128906 4.308594 -8.246094 3.84375 -8.246094 C 3.378906 -8.246094 2.929688 -8.128906 2.507812 -7.914062 C 2.085938 -7.691406 1.71875 -7.375 1.402344 -6.957031 C 1.105469 -6.570312 0.878906 -6.128906 0.730469 -5.648438 C 0.574219 -5.164062 0.5 -4.648438 0.5 -4.117188 C 0.5 -3.585938 0.574219 -3.074219 0.730469 -2.589844 C 0.878906 -2.101562 1.105469 -1.667969 1.402344 -1.289062 C 1.71875 -0.871094 2.085938 -0.546875 2.507812 -0.332031 C 2.929688 -0.109375 3.378906 0 3.84375 0 C 4.308594 0 4.75 -0.109375 5.171875 -0.332031 C 5.589844 -0.546875 5.960938 -0.871094 6.277344 -1.289062 C 6.578125 -1.667969 6.800781 -2.101562 6.957031 -2.589844 C 7.109375 -3.074219 7.191406 -3.585938 7.191406 -4.117188 C 7.191406 -4.648438 7.109375 -5.164062 6.957031 -5.648438 C 6.800781 -6.128906 6.578125 -6.570312 6.277344 -6.957031 Z M 3.84375 -1.644531 C 3.613281 -1.644531 3.386719 -1.710938 3.1875 -1.84375 C 2.980469 -1.976562 2.796875 -2.152344 2.648438 -2.375 C 2.492188 -2.597656 2.367188 -2.863281 2.273438 -3.164062 C 2.183594 -3.460938 2.140625 -3.777344 2.140625 -4.117188 C 2.140625 -4.449219 2.183594 -4.773438 2.273438 -5.074219 C 2.367188 -5.371094 2.492188 -5.628906 2.648438 -5.863281 C 2.796875 -6.085938 2.980469 -6.269531 3.1875 -6.402344 C 3.386719 -6.535156 3.613281 -6.601562 3.84375 -6.601562 C 4.078125 -6.601562 4.292969 -6.535156 4.5 -6.402344 C 4.699219 -6.269531 4.882812 -6.085938 5.03125 -5.863281 C 5.183594 -5.628906 5.304688 -5.371094 5.398438 -5.074219 C 5.488281 -4.773438 5.539062 -4.449219 5.539062 -4.117188 C 5.539062 -3.777344 5.488281 -3.460938 5.398438 -3.164062 C 5.304688 -2.863281 5.183594 -2.597656 5.03125 -2.375 C 4.882812 -2.152344 4.699219 -1.976562 4.5 -1.84375 C 4.292969 -1.710938 4.078125 -1.644531 3.84375 -1.644531 Z M 3.84375 -1.644531 "/></g></g></g><g fill="#ffc1b2" fill-opacity="0.302"><g transform="translate(66.015059, 42.445798)"><g><path d="M 6.277344 -6.957031 C 5.960938 -7.375 5.589844 -7.691406 5.171875 -7.914062 C 4.75 -8.128906 4.308594 -8.246094 3.84375 -8.246094 C 3.378906 -8.246094 2.929688 -8.128906 2.507812 -7.914062 C 2.085938 -7.691406 1.71875 -7.375 1.402344 -6.957031 C 1.105469 -6.570312 0.878906 -6.128906 0.730469 -5.648438 C 0.574219 -5.164062 0.5 -4.648438 0.5 -4.117188 C 0.5 -3.585938 0.574219 -3.074219 0.730469 -2.589844 C 0.878906 -2.101562 1.105469 -1.667969 1.402344 -1.289062 C 1.71875 -0.871094 2.085938 -0.546875 2.507812 -0.332031 C 2.929688 -0.109375 3.378906 0 3.84375 0 C 4.308594 0 4.75 -0.109375 5.171875 -0.332031 C 5.589844 -0.546875 5.960938 -0.871094 6.277344 -1.289062 C 6.578125 -1.667969 6.800781 -2.101562 6.957031 -2.589844 C 7.109375 -3.074219 7.191406 -3.585938 7.191406 -4.117188 C 7.191406 -4.648438 7.109375 -5.164062 6.957031 -5.648438 C 6.800781 -6.128906 6.578125 -6.570312 6.277344 -6.957031 Z M 3.84375 -1.644531 C 3.613281 -1.644531 3.386719 -1.710938 3.1875 -1.84375 C 2.980469 -1.976562 2.796875 -2.152344 2.648438 -2.375 C 2.492188 -2.597656 2.367188 -2.863281 2.273438 -3.164062 C 2.183594 -3.460938 2.140625 -3.777344 2.140625 -4.117188 C 2.140625 -4.449219 2.183594 -4.773438 2.273438 -5.074219 C 2.367188 -5.371094 2.492188 -5.628906 2.648438 -5.863281 C 2.796875 -6.085938 2.980469 -6.269531 3.1875 -6.402344 C 3.386719 -6.535156 3.613281 -6.601562 3.84375 -6.601562 C 4.078125 -6.601562 4.292969 -6.535156 4.5 -6.402344 C 4.699219 -6.269531 4.882812 -6.085938 5.03125 -5.863281 C 5.183594 -5.628906 5.304688 -5.371094 5.398438 -5.074219 C 5.488281 -4.773438 5.539062 -4.449219 5.539062 -4.117188 C 5.539062 -3.777344 5.488281 -3.460938 5.398438 -3.164062 C 5.304688 -2.863281 5.183594 -2.597656 5.03125 -2.375 C 4.882812 -2.152344 4.699219 -1.976562 4.5 -1.84375 C 4.292969 -1.710938 4.078125 -1.644531 3.84375 -1.644531 Z M 3.84375 -1.644531 "/></g></g></g><g fill="#ffc1b2" fill-opacity="0.302"><g transform="translate(73.704823, 42.445798)"><g><path d="M 7.109375 -0.234375 L 6.949219 -0.355469 C 6.835938 -0.433594 6.734375 -0.53125 6.652344 -0.664062 L 4.335938 -3.945312 C 4.285156 -3.996094 4.269531 -4.0625 4.269531 -4.128906 C 4.269531 -4.195312 4.285156 -4.25 4.335938 -4.308594 L 6.652344 -7.597656 C 6.734375 -7.707031 6.835938 -7.8125 6.957031 -7.914062 L 7.109375 -8.023438 C 7.160156 -8.0625 7.175781 -8.121094 7.148438 -8.1875 C 7.117188 -8.230469 7.074219 -8.253906 7.035156 -8.253906 L 4.875 -8.253906 C 4.816406 -8.253906 4.773438 -8.230469 4.757812 -8.179688 C 4.734375 -8.128906 4.734375 -8.089844 4.765625 -8.046875 L 4.773438 -8.039062 C 4.824219 -7.972656 4.832031 -7.90625 4.792969 -7.839844 L 3.148438 -5.496094 C 3.097656 -5.4375 3.046875 -5.421875 2.980469 -5.4375 C 2.914062 -5.457031 2.890625 -5.503906 2.890625 -5.582031 L 2.890625 -7.582031 C 2.890625 -7.746094 2.949219 -7.90625 3.074219 -8.039062 C 3.105469 -8.078125 3.113281 -8.128906 3.097656 -8.179688 C 3.074219 -8.230469 3.03125 -8.253906 2.980469 -8.253906 L 1.121094 -8.253906 C 1.0625 -8.253906 1.019531 -8.230469 1.003906 -8.179688 C 0.980469 -8.128906 0.988281 -8.089844 1.03125 -8.046875 C 1.171875 -7.890625 1.246094 -7.707031 1.246094 -7.492188 L 1.246094 -0.722656 C 1.246094 -0.53125 1.179688 -0.367188 1.054688 -0.234375 L 1.03125 -0.207031 C 0.996094 -0.15625 0.996094 -0.117188 1.019531 -0.0664062 C 1.039062 -0.015625 1.078125 0 1.136719 0 L 2.996094 0 C 3.046875 0 3.089844 -0.0234375 3.105469 -0.0742188 C 3.121094 -0.125 3.121094 -0.167969 3.089844 -0.207031 C 2.957031 -0.347656 2.890625 -0.515625 2.890625 -0.699219 L 2.890625 -2.683594 C 2.890625 -2.75 2.914062 -2.789062 2.980469 -2.816406 C 3.046875 -2.832031 3.097656 -2.816406 3.148438 -2.757812 L 4.792969 -0.421875 C 4.832031 -0.339844 4.824219 -0.273438 4.773438 -0.222656 L 4.765625 -0.207031 C 4.734375 -0.15625 4.734375 -0.117188 4.757812 -0.0664062 C 4.773438 -0.015625 4.816406 0 4.875 0 L 7.035156 0 C 7.082031 0 7.117188 -0.0234375 7.148438 -0.0742188 C 7.160156 -0.101562 7.160156 -0.125 7.160156 -0.15625 C 7.148438 -0.191406 7.132812 -0.214844 7.109375 -0.234375 Z M 7.109375 -0.234375 "/></g></g></g><g fill="#ffc1b2" fill-opacity="0.302"><g transform="translate(81.867932, 42.445798)"><g><path d="M 10.921875 -8.253906 L 9.132812 -8.253906 L 9.132812 -8.246094 L 9.132812 -8.253906 L 8.976562 -8.253906 C 8.917969 -8.253906 8.878906 -8.230469 8.859375 -8.179688 C 8.835938 -8.128906 8.835938 -8.089844 8.867188 -8.046875 L 8.902344 -8.011719 C 8.984375 -7.914062 9.011719 -7.8125 8.976562 -7.699219 L 7.605469 -2.957031 C 7.589844 -2.90625 7.558594 -2.882812 7.507812 -2.882812 C 7.457031 -2.882812 7.425781 -2.90625 7.40625 -2.957031 L 6.808594 -5.039062 C 6.769531 -5.15625 6.792969 -5.265625 6.882812 -5.355469 L 6.902344 -5.371094 C 6.925781 -5.414062 6.925781 -5.457031 6.902344 -5.503906 C 6.875 -5.546875 6.835938 -5.570312 6.785156 -5.570312 L 4.757812 -5.570312 C 4.707031 -5.570312 4.667969 -5.546875 4.640625 -5.503906 C 4.617188 -5.457031 4.617188 -5.414062 4.648438 -5.371094 L 4.667969 -5.355469 C 4.75 -5.257812 4.773438 -5.15625 4.742188 -5.039062 L 4.144531 -2.957031 C 4.128906 -2.90625 4.09375 -2.882812 4.042969 -2.882812 C 3.984375 -2.882812 3.953125 -2.90625 3.945312 -2.957031 L 2.574219 -7.699219 C 2.542969 -7.8125 2.566406 -7.914062 2.648438 -8.011719 L 2.683594 -8.046875 C 2.707031 -8.089844 2.707031 -8.128906 2.691406 -8.179688 C 2.664062 -8.230469 2.625 -8.253906 2.574219 -8.253906 L 0.632812 -8.253906 C 0.574219 -8.253906 0.53125 -8.230469 0.515625 -8.179688 C 0.488281 -8.128906 0.488281 -8.089844 0.523438 -8.046875 C 0.738281 -7.847656 0.886719 -7.597656 0.972656 -7.316406 L 2.929688 -0.539062 C 2.964844 -0.414062 2.929688 -0.308594 2.847656 -0.207031 C 2.816406 -0.15625 2.816406 -0.117188 2.839844 -0.0664062 C 2.863281 -0.015625 2.90625 0 2.957031 0 L 5.125 0 C 5.171875 0 5.207031 -0.015625 5.230469 -0.0664062 C 5.257812 -0.117188 5.257812 -0.15625 5.230469 -0.207031 L 5.222656 -0.207031 C 5.140625 -0.289062 5.117188 -0.398438 5.148438 -0.523438 L 5.671875 -2.332031 C 5.6875 -2.382812 5.722656 -2.410156 5.769531 -2.410156 C 5.820312 -2.410156 5.863281 -2.382812 5.878906 -2.332031 L 6.394531 -0.53125 C 6.425781 -0.40625 6.402344 -0.300781 6.320312 -0.214844 L 6.3125 -0.207031 C 6.277344 -0.15625 6.277344 -0.117188 6.304688 -0.0664062 C 6.328125 -0.015625 6.371094 0 6.417969 0 L 8.601562 0 C 8.652344 0 8.695312 -0.015625 8.710938 -0.0664062 C 8.726562 -0.117188 8.726562 -0.15625 8.695312 -0.207031 C 8.601562 -0.289062 8.578125 -0.398438 8.621094 -0.515625 L 10.578125 -7.324219 C 10.621094 -7.457031 10.679688 -7.589844 10.753906 -7.714844 C 10.820312 -7.839844 10.910156 -7.945312 11.027344 -8.046875 C 11.054688 -8.089844 11.054688 -8.128906 11.035156 -8.179688 C 11.011719 -8.230469 10.96875 -8.253906 10.921875 -8.253906 Z M 10.921875 -8.253906 "/></g></g></g><g fill="#ffc1b2" fill-opacity="0.302"><g transform="translate(93.419193, 42.445798)"><g><path d="M 2.875 -0.730469 L 2.875 -7.523438 C 2.875 -7.722656 2.941406 -7.898438 3.074219 -8.046875 C 3.097656 -8.089844 3.097656 -8.128906 3.082031 -8.179688 C 3.054688 -8.230469 3.015625 -8.253906 2.964844 -8.253906 L 1.128906 -8.253906 C 1.070312 -8.253906 1.03125 -8.230469 1.011719 -8.179688 C 0.988281 -8.128906 0.988281 -8.089844 1.019531 -8.046875 C 1.152344 -7.898438 1.230469 -7.722656 1.230469 -7.523438 L 1.230469 -0.730469 C 1.230469 -0.53125 1.152344 -0.355469 1.019531 -0.207031 C 0.988281 -0.15625 0.988281 -0.117188 1.011719 -0.0664062 C 1.03125 -0.015625 1.070312 0 1.128906 0 L 2.964844 0 C 3.015625 0 3.054688 -0.015625 3.082031 -0.0664062 C 3.097656 -0.117188 3.097656 -0.15625 3.074219 -0.207031 C 3.007812 -0.273438 2.957031 -0.355469 2.921875 -0.449219 C 2.890625 -0.539062 2.875 -0.632812 2.875 -0.730469 Z M 2.875 -0.730469 "/></g></g></g><g fill="#ffc1b2" fill-opacity="0.302"><g transform="translate(97.521507, 42.445798)"><g><path d="M 6.824219 -6.210938 L 6.785156 -6.261719 C 6.667969 -6.378906 6.59375 -6.511719 6.542969 -6.660156 C 6.394531 -7.125 6.085938 -7.507812 5.636719 -7.804688 C 5.390625 -7.964844 5.105469 -8.089844 4.792969 -8.171875 C 4.476562 -8.253906 4.152344 -8.296875 3.804688 -8.296875 C 3.453125 -8.296875 3.113281 -8.246094 2.789062 -8.164062 C 2.464844 -8.078125 2.175781 -7.957031 1.917969 -7.796875 C 1.570312 -7.582031 1.3125 -7.324219 1.128906 -7.015625 C 0.945312 -6.710938 0.863281 -6.378906 0.863281 -6.011719 C 0.863281 -5.316406 1.1875 -4.71875 1.851562 -4.226562 C 2.085938 -4.042969 2.332031 -3.894531 2.609375 -3.761719 C 2.882812 -3.628906 3.164062 -3.496094 3.445312 -3.378906 C 3.613281 -3.296875 3.796875 -3.214844 3.976562 -3.128906 C 4.160156 -3.046875 4.328125 -2.957031 4.476562 -2.875 C 4.625 -2.78125 4.75 -2.691406 4.851562 -2.597656 C 4.949219 -2.5 5 -2.410156 5 -2.316406 C 5 -2.199219 4.957031 -2.09375 4.875 -2.007812 C 4.792969 -1.925781 4.683594 -1.851562 4.558594 -1.800781 C 4.433594 -1.753906 4.300781 -1.710938 4.152344 -1.6875 C 4.003906 -1.652344 3.871094 -1.644531 3.738281 -1.644531 C 3.570312 -1.644531 3.40625 -1.660156 3.222656 -1.703125 C 3.039062 -1.734375 2.882812 -1.800781 2.757812 -1.894531 C 2.722656 -1.917969 2.699219 -1.953125 2.699219 -1.992188 C 2.691406 -2.035156 2.699219 -2.066406 2.730469 -2.101562 L 2.742188 -2.109375 C 2.765625 -2.152344 2.765625 -2.191406 2.75 -2.242188 C 2.722656 -2.292969 2.683594 -2.316406 2.632812 -2.316406 L 0.796875 -2.316406 C 0.738281 -2.316406 0.699219 -2.292969 0.679688 -2.242188 C 0.65625 -2.191406 0.65625 -2.152344 0.6875 -2.109375 L 0.722656 -2.074219 C 0.839844 -1.941406 0.914062 -1.800781 0.964844 -1.660156 C 1.113281 -1.179688 1.410156 -0.796875 1.875 -0.507812 C 2.125 -0.339844 2.417969 -0.214844 2.730469 -0.132812 C 3.046875 -0.0429688 3.386719 0 3.738281 0 C 4.152344 0 4.542969 -0.0585938 4.898438 -0.175781 C 5.257812 -0.289062 5.5625 -0.449219 5.820312 -0.65625 C 6.078125 -0.855469 6.277344 -1.105469 6.425781 -1.386719 C 6.570312 -1.667969 6.644531 -1.976562 6.644531 -2.316406 C 6.644531 -2.675781 6.558594 -2.988281 6.402344 -3.253906 C 6.246094 -3.519531 6.046875 -3.753906 5.796875 -3.953125 C 5.546875 -4.152344 5.28125 -4.316406 4.984375 -4.46875 C 4.683594 -4.617188 4.394531 -4.75 4.109375 -4.882812 C 3.917969 -4.964844 3.730469 -5.050781 3.539062 -5.140625 C 3.347656 -5.222656 3.171875 -5.316406 3.023438 -5.414062 C 2.875 -5.503906 2.75 -5.605469 2.648438 -5.703125 C 2.550781 -5.804688 2.507812 -5.90625 2.507812 -6.011719 C 2.507812 -6.105469 2.542969 -6.1875 2.625 -6.269531 C 2.699219 -6.351562 2.796875 -6.417969 2.921875 -6.476562 C 3.039062 -6.527344 3.179688 -6.570312 3.339844 -6.601562 C 3.488281 -6.636719 3.644531 -6.652344 3.804688 -6.652344 C 3.984375 -6.652344 4.167969 -6.625 4.335938 -6.59375 C 4.5 -6.550781 4.632812 -6.492188 4.75 -6.417969 C 4.785156 -6.394531 4.808594 -6.359375 4.808594 -6.320312 C 4.808594 -6.277344 4.800781 -6.246094 4.773438 -6.21875 L 4.773438 -6.210938 C 4.742188 -6.160156 4.742188 -6.121094 4.765625 -6.078125 C 4.785156 -6.027344 4.824219 -6.011719 4.882812 -6.011719 L 6.71875 -6.011719 C 6.769531 -6.011719 6.808594 -6.027344 6.835938 -6.078125 C 6.851562 -6.121094 6.851562 -6.160156 6.824219 -6.210938 Z M 6.824219 -6.210938 "/></g></g></g><g fill="#ffc1b2" fill-opacity="0.302"><g transform="translate(105.036883, 42.445798)"><g><path d="M 6.046875 -8.3125 C 5.90625 -8.179688 5.738281 -8.121094 5.554688 -8.121094 L 1.128906 -8.121094 C 1.070312 -8.121094 1.03125 -8.097656 1.011719 -8.046875 C 0.988281 -7.996094 0.988281 -7.957031 1.019531 -7.914062 L 1.046875 -7.890625 C 1.179688 -7.738281 1.246094 -7.566406 1.246094 -7.367188 L 1.246094 -0.621094 C 1.246094 -0.523438 1.230469 -0.433594 1.195312 -0.339844 C 1.164062 -0.25 1.113281 -0.167969 1.046875 -0.101562 L 1.019531 -0.0742188 C 0.988281 -0.0234375 0.988281 0.015625 1.011719 0.0664062 C 1.03125 0.117188 1.070312 0.132812 1.128906 0.132812 L 5.554688 0.132812 C 5.738281 0.132812 5.90625 0.199219 6.046875 0.324219 C 6.085938 0.367188 6.136719 0.375 6.1875 0.347656 C 6.238281 0.332031 6.269531 0.289062 6.269531 0.222656 L 6.269531 -1.628906 C 6.269531 -1.675781 6.246094 -1.71875 6.195312 -1.742188 C 6.144531 -1.761719 6.09375 -1.753906 6.0625 -1.71875 C 5.914062 -1.578125 5.738281 -1.511719 5.539062 -1.511719 L 3.097656 -1.511719 C 3.039062 -1.511719 2.988281 -1.527344 2.949219 -1.570312 C 2.90625 -1.601562 2.890625 -1.652344 2.890625 -1.71875 L 2.890625 -2.964844 C 2.890625 -3.023438 2.90625 -3.074219 2.949219 -3.113281 C 2.988281 -3.148438 3.039062 -3.171875 3.097656 -3.171875 L 3.828125 -3.171875 C 4.027344 -3.171875 4.203125 -3.097656 4.351562 -2.964844 C 4.394531 -2.929688 4.433594 -2.929688 4.484375 -2.957031 C 4.535156 -2.980469 4.558594 -3.023438 4.558594 -3.074219 L 4.558594 -4.917969 C 4.558594 -4.964844 4.535156 -5 4.484375 -5.023438 C 4.433594 -5.050781 4.394531 -5.050781 4.351562 -5.023438 C 4.203125 -4.882812 4.027344 -4.816406 3.828125 -4.816406 L 3.097656 -4.816406 C 3.039062 -4.816406 2.988281 -4.832031 2.949219 -4.875 C 2.90625 -4.90625 2.890625 -4.957031 2.890625 -5.023438 L 2.890625 -6.269531 C 2.890625 -6.328125 2.90625 -6.378906 2.949219 -6.417969 C 2.988281 -6.453125 3.039062 -6.476562 3.097656 -6.476562 L 5.539062 -6.476562 C 5.738281 -6.476562 5.914062 -6.402344 6.0625 -6.269531 C 6.09375 -6.226562 6.144531 -6.21875 6.195312 -6.246094 C 6.246094 -6.261719 6.269531 -6.304688 6.269531 -6.359375 L 6.269531 -8.222656 C 6.269531 -8.269531 6.238281 -8.3125 6.1875 -8.335938 C 6.136719 -8.355469 6.085938 -8.347656 6.046875 -8.3125 Z M 6.046875 -8.3125 "/></g></g></g><g fill="#ffc1b2" fill-opacity="0.502"><g transform="translate(50.871909, 42.539086)"><g><path d="M 6.226562 -4.21875 C 6.195312 -4.242188 6.179688 -4.277344 6.179688 -4.316406 C 6.171875 -4.351562 6.179688 -4.382812 6.203125 -4.417969 C 6.34375 -4.617188 6.453125 -4.832031 6.527344 -5.066406 C 6.59375 -5.296875 6.636719 -5.53125 6.636719 -5.769531 C 6.636719 -6.070312 6.570312 -6.378906 6.453125 -6.675781 C 6.328125 -6.976562 6.144531 -7.242188 5.90625 -7.472656 C 5.664062 -7.707031 5.363281 -7.890625 5.007812 -8.039062 C 4.648438 -8.179688 4.234375 -8.253906 3.769531 -8.253906 L 1.121094 -8.253906 C 1.0625 -8.253906 1.019531 -8.230469 1.003906 -8.179688 C 0.980469 -8.128906 0.988281 -8.078125 1.03125 -8.046875 C 1.179688 -7.878906 1.261719 -7.679688 1.261719 -7.457031 L 1.261719 -0.796875 C 1.261719 -0.566406 1.179688 -0.367188 1.03125 -0.199219 C 0.996094 -0.148438 0.996094 -0.109375 1.019531 -0.0664062 C 1.039062 -0.015625 1.078125 0 1.136719 0 L 4.144531 0 C 4.609375 0 5.023438 -0.0664062 5.382812 -0.207031 C 5.738281 -0.347656 6.039062 -0.539062 6.277344 -0.773438 C 6.519531 -1.003906 6.703125 -1.261719 6.824219 -1.5625 C 6.941406 -1.851562 7.007812 -2.152344 7.007812 -2.464844 C 7.007812 -2.796875 6.933594 -3.113281 6.800781 -3.414062 C 6.667969 -3.710938 6.476562 -3.984375 6.226562 -4.21875 Z M 2.90625 -5.230469 L 2.90625 -6.320312 C 2.90625 -6.394531 2.929688 -6.460938 2.988281 -6.519531 C 3.046875 -6.570312 3.113281 -6.601562 3.195312 -6.601562 L 3.769531 -6.601562 C 3.976562 -6.601562 4.160156 -6.578125 4.316406 -6.527344 C 4.46875 -6.476562 4.601562 -6.417969 4.699219 -6.34375 C 4.800781 -6.261719 4.867188 -6.179688 4.917969 -6.078125 C 4.964844 -5.980469 4.992188 -5.871094 4.992188 -5.769531 C 4.992188 -5.5625 4.90625 -5.390625 4.75 -5.25 C 4.535156 -5.050781 4.203125 -4.949219 3.769531 -4.949219 L 3.195312 -4.949219 C 3.113281 -4.949219 3.046875 -4.972656 2.988281 -5.03125 C 2.929688 -5.082031 2.90625 -5.148438 2.90625 -5.230469 Z M 5.125 -1.941406 C 4.90625 -1.742188 4.574219 -1.644531 4.144531 -1.644531 L 3.195312 -1.644531 C 3.113281 -1.644531 3.046875 -1.667969 2.988281 -1.726562 C 2.929688 -1.777344 2.90625 -1.851562 2.90625 -1.933594 L 2.90625 -3.015625 C 2.90625 -3.089844 2.929688 -3.15625 2.988281 -3.214844 C 3.046875 -3.273438 3.113281 -3.304688 3.195312 -3.304688 L 4.144531 -3.304688 C 4.351562 -3.304688 4.535156 -3.28125 4.683594 -3.230469 C 4.832031 -3.179688 4.964844 -3.113281 5.066406 -3.039062 C 5.164062 -2.957031 5.238281 -2.875 5.289062 -2.773438 C 5.339844 -2.675781 5.363281 -2.566406 5.363281 -2.464844 C 5.363281 -2.265625 5.28125 -2.09375 5.125 -1.941406 Z M 5.125 -1.941406 "/></g></g></g><g fill="#ffc1b2" fill-opacity="0.502"><g transform="translate(58.545063, 42.539086)"><g><path d="M 6.277344 -6.957031 C 5.960938 -7.375 5.589844 -7.691406 5.171875 -7.914062 C 4.75 -8.128906 4.308594 -8.246094 3.84375 -8.246094 C 3.378906 -8.246094 2.929688 -8.128906 2.507812 -7.914062 C 2.085938 -7.691406 1.71875 -7.375 1.402344 -6.957031 C 1.105469 -6.570312 0.878906 -6.128906 0.730469 -5.648438 C 0.574219 -5.164062 0.5 -4.648438 0.5 -4.117188 C 0.5 -3.585938 0.574219 -3.074219 0.730469 -2.589844 C 0.878906 -2.101562 1.105469 -1.667969 1.402344 -1.289062 C 1.71875 -0.871094 2.085938 -0.546875 2.507812 -0.332031 C 2.929688 -0.109375 3.378906 0 3.84375 0 C 4.308594 0 4.75 -0.109375 5.171875 -0.332031 C 5.589844 -0.546875 5.960938 -0.871094 6.277344 -1.289062 C 6.578125 -1.667969 6.800781 -2.101562 6.957031 -2.589844 C 7.109375 -3.074219 7.191406 -3.585938 7.191406 -4.117188 C 7.191406 -4.648438 7.109375 -5.164062 6.957031 -5.648438 C 6.800781 -6.128906 6.578125 -6.570312 6.277344 -6.957031 Z M 3.84375 -1.644531 C 3.613281 -1.644531 3.386719 -1.710938 3.1875 -1.84375 C 2.980469 -1.976562 2.796875 -2.152344 2.648438 -2.375 C 2.492188 -2.597656 2.367188 -2.863281 2.273438 -3.164062 C 2.183594 -3.460938 2.140625 -3.777344 2.140625 -4.117188 C 2.140625 -4.449219 2.183594 -4.773438 2.273438 -5.074219 C 2.367188 -5.371094 2.492188 -5.628906 2.648438 -5.863281 C 2.796875 -6.085938 2.980469 -6.269531 3.1875 -6.402344 C 3.386719 -6.535156 3.613281 -6.601562 3.84375 -6.601562 C 4.078125 -6.601562 4.292969 -6.535156 4.5 -6.402344 C 4.699219 -6.269531 4.882812 -6.085938 5.03125 -5.863281 C 5.183594 -5.628906 5.304688 -5.371094 5.398438 -5.074219 C 5.488281 -4.773438 5.539062 -4.449219 5.539062 -4.117188 C 5.539062 -3.777344 5.488281 -3.460938 5.398438 -3.164062 C 5.304688 -2.863281 5.183594 -2.597656 5.03125 -2.375 C 4.882812 -2.152344 4.699219 -1.976562 4.5 -1.84375 C 4.292969 -1.710938 4.078125 -1.644531 3.84375 -1.644531 Z M 3.84375 -1.644531 "/></g></g></g><g fill="#ffc1b2" fill-opacity="0.502"><g transform="translate(66.234827, 42.539086)"><g><path d="M 6.277344 -6.957031 C 5.960938 -7.375 5.589844 -7.691406 5.171875 -7.914062 C 4.75 -8.128906 4.308594 -8.246094 3.84375 -8.246094 C 3.378906 -8.246094 2.929688 -8.128906 2.507812 -7.914062 C 2.085938 -7.691406 1.71875 -7.375 1.402344 -6.957031 C 1.105469 -6.570312 0.878906 -6.128906 0.730469 -5.648438 C 0.574219 -5.164062 0.5 -4.648438 0.5 -4.117188 C 0.5 -3.585938 0.574219 -3.074219 0.730469 -2.589844 C 0.878906 -2.101562 1.105469 -1.667969 1.402344 -1.289062 C 1.71875 -0.871094 2.085938 -0.546875 2.507812 -0.332031 C 2.929688 -0.109375 3.378906 0 3.84375 0 C 4.308594 0 4.75 -0.109375 5.171875 -0.332031 C 5.589844 -0.546875 5.960938 -0.871094 6.277344 -1.289062 C 6.578125 -1.667969 6.800781 -2.101562 6.957031 -2.589844 C 7.109375 -3.074219 7.191406 -3.585938 7.191406 -4.117188 C 7.191406 -4.648438 7.109375 -5.164062 6.957031 -5.648438 C 6.800781 -6.128906 6.578125 -6.570312 6.277344 -6.957031 Z M 3.84375 -1.644531 C 3.613281 -1.644531 3.386719 -1.710938 3.1875 -1.84375 C 2.980469 -1.976562 2.796875 -2.152344 2.648438 -2.375 C 2.492188 -2.597656 2.367188 -2.863281 2.273438 -3.164062 C 2.183594 -3.460938 2.140625 -3.777344 2.140625 -4.117188 C 2.140625 -4.449219 2.183594 -4.773438 2.273438 -5.074219 C 2.367188 -5.371094 2.492188 -5.628906 2.648438 -5.863281 C 2.796875 -6.085938 2.980469 -6.269531 3.1875 -6.402344 C 3.386719 -6.535156 3.613281 -6.601562 3.84375 -6.601562 C 4.078125 -6.601562 4.292969 -6.535156 4.5 -6.402344 C 4.699219 -6.269531 4.882812 -6.085938 5.03125 -5.863281 C 5.183594 -5.628906 5.304688 -5.371094 5.398438 -5.074219 C 5.488281 -4.773438 5.539062 -4.449219 5.539062 -4.117188 C 5.539062 -3.777344 5.488281 -3.460938 5.398438 -3.164062 C 5.304688 -2.863281 5.183594 -2.597656 5.03125 -2.375 C 4.882812 -2.152344 4.699219 -1.976562 4.5 -1.84375 C 4.292969 -1.710938 4.078125 -1.644531 3.84375 -1.644531 Z M 3.84375 -1.644531 "/></g></g></g><g fill="#ffc1b2" fill-opacity="0.502"><g transform="translate(73.924591, 42.539086)"><g><path d="M 7.109375 -0.234375 L 6.949219 -0.355469 C 6.835938 -0.433594 6.734375 -0.53125 6.652344 -0.664062 L 4.335938 -3.945312 C 4.285156 -3.996094 4.269531 -4.0625 4.269531 -4.128906 C 4.269531 -4.195312 4.285156 -4.25 4.335938 -4.308594 L 6.652344 -7.597656 C 6.734375 -7.707031 6.835938 -7.8125 6.957031 -7.914062 L 7.109375 -8.023438 C 7.160156 -8.0625 7.175781 -8.121094 7.148438 -8.1875 C 7.117188 -8.230469 7.074219 -8.253906 7.035156 -8.253906 L 4.875 -8.253906 C 4.816406 -8.253906 4.773438 -8.230469 4.757812 -8.179688 C 4.734375 -8.128906 4.734375 -8.089844 4.765625 -8.046875 L 4.773438 -8.039062 C 4.824219 -7.972656 4.832031 -7.90625 4.792969 -7.839844 L 3.148438 -5.496094 C 3.097656 -5.4375 3.046875 -5.421875 2.980469 -5.4375 C 2.914062 -5.457031 2.890625 -5.503906 2.890625 -5.582031 L 2.890625 -7.582031 C 2.890625 -7.746094 2.949219 -7.90625 3.074219 -8.039062 C 3.105469 -8.078125 3.113281 -8.128906 3.097656 -8.179688 C 3.074219 -8.230469 3.03125 -8.253906 2.980469 -8.253906 L 1.121094 -8.253906 C 1.0625 -8.253906 1.019531 -8.230469 1.003906 -8.179688 C 0.980469 -8.128906 0.988281 -8.089844 1.03125 -8.046875 C 1.171875 -7.890625 1.246094 -7.707031 1.246094 -7.492188 L 1.246094 -0.722656 C 1.246094 -0.53125 1.179688 -0.367188 1.054688 -0.234375 L 1.03125 -0.207031 C 0.996094 -0.15625 0.996094 -0.117188 1.019531 -0.0664062 C 1.039062 -0.015625 1.078125 0 1.136719 0 L 2.996094 0 C 3.046875 0 3.089844 -0.0234375 3.105469 -0.0742188 C 3.121094 -0.125 3.121094 -0.167969 3.089844 -0.207031 C 2.957031 -0.347656 2.890625 -0.515625 2.890625 -0.699219 L 2.890625 -2.683594 C 2.890625 -2.75 2.914062 -2.789062 2.980469 -2.816406 C 3.046875 -2.832031 3.097656 -2.816406 3.148438 -2.757812 L 4.792969 -0.421875 C 4.832031 -0.339844 4.824219 -0.273438 4.773438 -0.222656 L 4.765625 -0.207031 C 4.734375 -0.15625 4.734375 -0.117188 4.757812 -0.0664062 C 4.773438 -0.015625 4.816406 0 4.875 0 L 7.035156 0 C 7.082031 0 7.117188 -0.0234375 7.148438 -0.0742188 C 7.160156 -0.101562 7.160156 -0.125 7.160156 -0.15625 C 7.148438 -0.191406 7.132812 -0.214844 7.109375 -0.234375 Z M 7.109375 -0.234375 "/></g></g></g><g fill="#ffc1b2" fill-opacity="0.502"><g transform="translate(82.0877, 42.539086)"><g><path d="M 10.921875 -8.253906 L 9.132812 -8.253906 L 9.132812 -8.246094 L 9.132812 -8.253906 L 8.976562 -8.253906 C 8.917969 -8.253906 8.878906 -8.230469 8.859375 -8.179688 C 8.835938 -8.128906 8.835938 -8.089844 8.867188 -8.046875 L 8.902344 -8.011719 C 8.984375 -7.914062 9.011719 -7.8125 8.976562 -7.699219 L 7.605469 -2.957031 C 7.589844 -2.90625 7.558594 -2.882812 7.507812 -2.882812 C 7.457031 -2.882812 7.425781 -2.90625 7.40625 -2.957031 L 6.808594 -5.039062 C 6.769531 -5.15625 6.792969 -5.265625 6.882812 -5.355469 L 6.902344 -5.371094 C 6.925781 -5.414062 6.925781 -5.457031 6.902344 -5.503906 C 6.875 -5.546875 6.835938 -5.570312 6.785156 -5.570312 L 4.757812 -5.570312 C 4.707031 -5.570312 4.667969 -5.546875 4.640625 -5.503906 C 4.617188 -5.457031 4.617188 -5.414062 4.648438 -5.371094 L 4.667969 -5.355469 C 4.75 -5.257812 4.773438 -5.15625 4.742188 -5.039062 L 4.144531 -2.957031 C 4.128906 -2.90625 4.09375 -2.882812 4.042969 -2.882812 C 3.984375 -2.882812 3.953125 -2.90625 3.945312 -2.957031 L 2.574219 -7.699219 C 2.542969 -7.8125 2.566406 -7.914062 2.648438 -8.011719 L 2.683594 -8.046875 C 2.707031 -8.089844 2.707031 -8.128906 2.691406 -8.179688 C 2.664062 -8.230469 2.625 -8.253906 2.574219 -8.253906 L 0.632812 -8.253906 C 0.574219 -8.253906 0.53125 -8.230469 0.515625 -8.179688 C 0.488281 -8.128906 0.488281 -8.089844 0.523438 -8.046875 C 0.738281 -7.847656 0.886719 -7.597656 0.972656 -7.316406 L 2.929688 -0.539062 C 2.964844 -0.414062 2.929688 -0.308594 2.847656 -0.207031 C 2.816406 -0.15625 2.816406 -0.117188 2.839844 -0.0664062 C 2.863281 -0.015625 2.90625 0 2.957031 0 L 5.125 0 C 5.171875 0 5.207031 -0.015625 5.230469 -0.0664062 C 5.257812 -0.117188 5.257812 -0.15625 5.230469 -0.207031 L 5.222656 -0.207031 C 5.140625 -0.289062 5.117188 -0.398438 5.148438 -0.523438 L 5.671875 -2.332031 C 5.6875 -2.382812 5.722656 -2.410156 5.769531 -2.410156 C 5.820312 -2.410156 5.863281 -2.382812 5.878906 -2.332031 L 6.394531 -0.53125 C 6.425781 -0.40625 6.402344 -0.300781 6.320312 -0.214844 L 6.3125 -0.207031 C 6.277344 -0.15625 6.277344 -0.117188 6.304688 -0.0664062 C 6.328125 -0.015625 6.371094 0 6.417969 0 L 8.601562 0 C 8.652344 0 8.695312 -0.015625 8.710938 -0.0664062 C 8.726562 -0.117188 8.726562 -0.15625 8.695312 -0.207031 C 8.601562 -0.289062 8.578125 -0.398438 8.621094 -0.515625 L 10.578125 -7.324219 C 10.621094 -7.457031 10.679688 -7.589844 10.753906 -7.714844 C 10.820312 -7.839844 10.910156 -7.945312 11.027344 -8.046875 C 11.054688 -8.089844 11.054688 -8.128906 11.035156 -8.179688 C 11.011719 -8.230469 10.96875 -8.253906 10.921875 -8.253906 Z M 10.921875 -8.253906 "/></g></g></g><g fill="#ffc1b2" fill-opacity="0.502"><g transform="translate(93.638961, 42.539086)"><g><path d="M 2.875 -0.730469 L 2.875 -7.523438 C 2.875 -7.722656 2.941406 -7.898438 3.074219 -8.046875 C 3.097656 -8.089844 3.097656 -8.128906 3.082031 -8.179688 C 3.054688 -8.230469 3.015625 -8.253906 2.964844 -8.253906 L 1.128906 -8.253906 C 1.070312 -8.253906 1.03125 -8.230469 1.011719 -8.179688 C 0.988281 -8.128906 0.988281 -8.089844 1.019531 -8.046875 C 1.152344 -7.898438 1.230469 -7.722656 1.230469 -7.523438 L 1.230469 -0.730469 C 1.230469 -0.53125 1.152344 -0.355469 1.019531 -0.207031 C 0.988281 -0.15625 0.988281 -0.117188 1.011719 -0.0664062 C 1.03125 -0.015625 1.070312 0 1.128906 0 L 2.964844 0 C 3.015625 0 3.054688 -0.015625 3.082031 -0.0664062 C 3.097656 -0.117188 3.097656 -0.15625 3.074219 -0.207031 C 3.007812 -0.273438 2.957031 -0.355469 2.921875 -0.449219 C 2.890625 -0.539062 2.875 -0.632812 2.875 -0.730469 Z M 2.875 -0.730469 "/></g></g></g><g fill="#ffc1b2" fill-opacity="0.502"><g transform="translate(97.741275, 42.539086)"><g><path d="M 6.824219 -6.210938 L 6.785156 -6.261719 C 6.667969 -6.378906 6.59375 -6.511719 6.542969 -6.660156 C 6.394531 -7.125 6.085938 -7.507812 5.636719 -7.804688 C 5.390625 -7.964844 5.105469 -8.089844 4.792969 -8.171875 C 4.476562 -8.253906 4.152344 -8.296875 3.804688 -8.296875 C 3.453125 -8.296875 3.113281 -8.246094 2.789062 -8.164062 C 2.464844 -8.078125 2.175781 -7.957031 1.917969 -7.796875 C 1.570312 -7.582031 1.3125 -7.324219 1.128906 -7.015625 C 0.945312 -6.710938 0.863281 -6.378906 0.863281 -6.011719 C 0.863281 -5.316406 1.1875 -4.71875 1.851562 -4.226562 C 2.085938 -4.042969 2.332031 -3.894531 2.609375 -3.761719 C 2.882812 -3.628906 3.164062 -3.496094 3.445312 -3.378906 C 3.613281 -3.296875 3.796875 -3.214844 3.976562 -3.128906 C 4.160156 -3.046875 4.328125 -2.957031 4.476562 -2.875 C 4.625 -2.78125 4.75 -2.691406 4.851562 -2.597656 C 4.949219 -2.5 5 -2.410156 5 -2.316406 C 5 -2.199219 4.957031 -2.09375 4.875 -2.007812 C 4.792969 -1.925781 4.683594 -1.851562 4.558594 -1.800781 C 4.433594 -1.753906 4.300781 -1.710938 4.152344 -1.6875 C 4.003906 -1.652344 3.871094 -1.644531 3.738281 -1.644531 C 3.570312 -1.644531 3.40625 -1.660156 3.222656 -1.703125 C 3.039062 -1.734375 2.882812 -1.800781 2.757812 -1.894531 C 2.722656 -1.917969 2.699219 -1.953125 2.699219 -1.992188 C 2.691406 -2.035156 2.699219 -2.066406 2.730469 -2.101562 L 2.742188 -2.109375 C 2.765625 -2.152344 2.765625 -2.191406 2.75 -2.242188 C 2.722656 -2.292969 2.683594 -2.316406 2.632812 -2.316406 L 0.796875 -2.316406 C 0.738281 -2.316406 0.699219 -2.292969 0.679688 -2.242188 C 0.65625 -2.191406 0.65625 -2.152344 0.6875 -2.109375 L 0.722656 -2.074219 C 0.839844 -1.941406 0.914062 -1.800781 0.964844 -1.660156 C 1.113281 -1.179688 1.410156 -0.796875 1.875 -0.507812 C 2.125 -0.339844 2.417969 -0.214844 2.730469 -0.132812 C 3.046875 -0.0429688 3.386719 0 3.738281 0 C 4.152344 0 4.542969 -0.0585938 4.898438 -0.175781 C 5.257812 -0.289062 5.5625 -0.449219 5.820312 -0.65625 C 6.078125 -0.855469 6.277344 -1.105469 6.425781 -1.386719 C 6.570312 -1.667969 6.644531 -1.976562 6.644531 -2.316406 C 6.644531 -2.675781 6.558594 -2.988281 6.402344 -3.253906 C 6.246094 -3.519531 6.046875 -3.753906 5.796875 -3.953125 C 5.546875 -4.152344 5.28125 -4.316406 4.984375 -4.46875 C 4.683594 -4.617188 4.394531 -4.75 4.109375 -4.882812 C 3.917969 -4.964844 3.730469 -5.050781 3.539062 -5.140625 C 3.347656 -5.222656 3.171875 -5.316406 3.023438 -5.414062 C 2.875 -5.503906 2.75 -5.605469 2.648438 -5.703125 C 2.550781 -5.804688 2.507812 -5.90625 2.507812 -6.011719 C 2.507812 -6.105469 2.542969 -6.1875 2.625 -6.269531 C 2.699219 -6.351562 2.796875 -6.417969 2.921875 -6.476562 C 3.039062 -6.527344 3.179688 -6.570312 3.339844 -6.601562 C 3.488281 -6.636719 3.644531 -6.652344 3.804688 -6.652344 C 3.984375 -6.652344 4.167969 -6.625 4.335938 -6.59375 C 4.5 -6.550781 4.632812 -6.492188 4.75 -6.417969 C 4.785156 -6.394531 4.808594 -6.359375 4.808594 -6.320312 C 4.808594 -6.277344 4.800781 -6.246094 4.773438 -6.21875 L 4.773438 -6.210938 C 4.742188 -6.160156 4.742188 -6.121094 4.765625 -6.078125 C 4.785156 -6.027344 4.824219 -6.011719 4.882812 -6.011719 L 6.71875 -6.011719 C 6.769531 -6.011719 6.808594 -6.027344 6.835938 -6.078125 C 6.851562 -6.121094 6.851562 -6.160156 6.824219 -6.210938 Z M 6.824219 -6.210938 "/></g></g></g><g fill="#ffc1b2" fill-opacity="0.502"><g transform="translate(105.256651, 42.539086)"><g><path d="M 6.046875 -8.3125 C 5.90625 -8.179688 5.738281 -8.121094 5.554688 -8.121094 L 1.128906 -8.121094 C 1.070312 -8.121094 1.03125 -8.097656 1.011719 -8.046875 C 0.988281 -7.996094 0.988281 -7.957031 1.019531 -7.914062 L 1.046875 -7.890625 C 1.179688 -7.738281 1.246094 -7.566406 1.246094 -7.367188 L 1.246094 -0.621094 C 1.246094 -0.523438 1.230469 -0.433594 1.195312 -0.339844 C 1.164062 -0.25 1.113281 -0.167969 1.046875 -0.101562 L 1.019531 -0.0742188 C 0.988281 -0.0234375 0.988281 0.015625 1.011719 0.0664062 C 1.03125 0.117188 1.070312 0.132812 1.128906 0.132812 L 5.554688 0.132812 C 5.738281 0.132812 5.90625 0.199219 6.046875 0.324219 C 6.085938 0.367188 6.136719 0.375 6.1875 0.347656 C 6.238281 0.332031 6.269531 0.289062 6.269531 0.222656 L 6.269531 -1.628906 C 6.269531 -1.675781 6.246094 -1.71875 6.195312 -1.742188 C 6.144531 -1.761719 6.09375 -1.753906 6.0625 -1.71875 C 5.914062 -1.578125 5.738281 -1.511719 5.539062 -1.511719 L 3.097656 -1.511719 C 3.039062 -1.511719 2.988281 -1.527344 2.949219 -1.570312 C 2.90625 -1.601562 2.890625 -1.652344 2.890625 -1.71875 L 2.890625 -2.964844 C 2.890625 -3.023438 2.90625 -3.074219 2.949219 -3.113281 C 2.988281 -3.148438 3.039062 -3.171875 3.097656 -3.171875 L 3.828125 -3.171875 C 4.027344 -3.171875 4.203125 -3.097656 4.351562 -2.964844 C 4.394531 -2.929688 4.433594 -2.929688 4.484375 -2.957031 C 4.535156 -2.980469 4.558594 -3.023438 4.558594 -3.074219 L 4.558594 -4.917969 C 4.558594 -4.964844 4.535156 -5 4.484375 -5.023438 C 4.433594 -5.050781 4.394531 -5.050781 4.351562 -5.023438 C 4.203125 -4.882812 4.027344 -4.816406 3.828125 -4.816406 L 3.097656 -4.816406 C 3.039062 -4.816406 2.988281 -4.832031 2.949219 -4.875 C 2.90625 -4.90625 2.890625 -4.957031 2.890625 -5.023438 L 2.890625 -6.269531 C 2.890625 -6.328125 2.90625 -6.378906 2.949219 -6.417969 C 2.988281 -6.453125 3.039062 -6.476562 3.097656 -6.476562 L 5.539062 -6.476562 C 5.738281 -6.476562 5.914062 -6.402344 6.0625 -6.269531 C 6.09375 -6.226562 6.144531 -6.21875 6.195312 -6.246094 C 6.246094 -6.261719 6.269531 -6.304688 6.269531 -6.359375 L 6.269531 -8.222656 C 6.269531 -8.269531 6.238281 -8.3125 6.1875 -8.335938 C 6.136719 -8.355469 6.085938 -8.347656 6.046875 -8.3125 Z M 6.046875 -8.3125 "/></g></g></g><g fill="#545454" fill-opacity="1"><g transform="translate(51.091677, 42.63237)"><g><path d="M 6.226562 -4.21875 C 6.195312 -4.242188 6.179688 -4.277344 6.179688 -4.316406 C 6.171875 -4.351562 6.179688 -4.382812 6.203125 -4.417969 C 6.34375 -4.617188 6.453125 -4.832031 6.527344 -5.066406 C 6.59375 -5.296875 6.636719 -5.53125 6.636719 -5.769531 C 6.636719 -6.070312 6.570312 -6.378906 6.453125 -6.675781 C 6.328125 -6.976562 6.144531 -7.242188 5.90625 -7.472656 C 5.664062 -7.707031 5.363281 -7.890625 5.007812 -8.039062 C 4.648438 -8.179688 4.234375 -8.253906 3.769531 -8.253906 L 1.121094 -8.253906 C 1.0625 -8.253906 1.019531 -8.230469 1.003906 -8.179688 C 0.980469 -8.128906 0.988281 -8.078125 1.03125 -8.046875 C 1.179688 -7.878906 1.261719 -7.679688 1.261719 -7.457031 L 1.261719 -0.796875 C 1.261719 -0.566406 1.179688 -0.367188 1.03125 -0.199219 C 0.996094 -0.148438 0.996094 -0.109375 1.019531 -0.0664062 C 1.039062 -0.015625 1.078125 0 1.136719 0 L 4.144531 0 C 4.609375 0 5.023438 -0.0664062 5.382812 -0.207031 C 5.738281 -0.347656 6.039062 -0.539062 6.277344 -0.773438 C 6.519531 -1.003906 6.703125 -1.261719 6.824219 -1.5625 C 6.941406 -1.851562 7.007812 -2.152344 7.007812 -2.464844 C 7.007812 -2.796875 6.933594 -3.113281 6.800781 -3.414062 C 6.667969 -3.710938 6.476562 -3.984375 6.226562 -4.21875 Z M 2.90625 -5.230469 L 2.90625 -6.320312 C 2.90625 -6.394531 2.929688 -6.460938 2.988281 -6.519531 C 3.046875 -6.570312 3.113281 -6.601562 3.195312 -6.601562 L 3.769531 -6.601562 C 3.976562 -6.601562 4.160156 -6.578125 4.316406 -6.527344 C 4.46875 -6.476562 4.601562 -6.417969 4.699219 -6.34375 C 4.800781 -6.261719 4.867188 -6.179688 4.917969 -6.078125 C 4.964844 -5.980469 4.992188 -5.871094 4.992188 -5.769531 C 4.992188 -5.5625 4.90625 -5.390625 4.75 -5.25 C 4.535156 -5.050781 4.203125 -4.949219 3.769531 -4.949219 L 3.195312 -4.949219 C 3.113281 -4.949219 3.046875 -4.972656 2.988281 -5.03125 C 2.929688 -5.082031 2.90625 -5.148438 2.90625 -5.230469 Z M 5.125 -1.941406 C 4.90625 -1.742188 4.574219 -1.644531 4.144531 -1.644531 L 3.195312 -1.644531 C 3.113281 -1.644531 3.046875 -1.667969 2.988281 -1.726562 C 2.929688 -1.777344 2.90625 -1.851562 2.90625 -1.933594 L 2.90625 -3.015625 C 2.90625 -3.089844 2.929688 -3.15625 2.988281 -3.214844 C 3.046875 -3.273438 3.113281 -3.304688 3.195312 -3.304688 L 4.144531 -3.304688 C 4.351562 -3.304688 4.535156 -3.28125 4.683594 -3.230469 C 4.832031 -3.179688 4.964844 -3.113281 5.066406 -3.039062 C 5.164062 -2.957031 5.238281 -2.875 5.289062 -2.773438 C 5.339844 -2.675781 5.363281 -2.566406 5.363281 -2.464844 C 5.363281 -2.265625 5.28125 -2.09375 5.125 -1.941406 Z M 5.125 -1.941406 "/></g></g></g><g fill="#545454" fill-opacity="1"><g transform="translate(58.764831, 42.63237)"><g><path d="M 6.277344 -6.957031 C 5.960938 -7.375 5.589844 -7.691406 5.171875 -7.914062 C 4.75 -8.128906 4.308594 -8.246094 3.84375 -8.246094 C 3.378906 -8.246094 2.929688 -8.128906 2.507812 -7.914062 C 2.085938 -7.691406 1.71875 -7.375 1.402344 -6.957031 C 1.105469 -6.570312 0.878906 -6.128906 0.730469 -5.648438 C 0.574219 -5.164062 0.5 -4.648438 0.5 -4.117188 C 0.5 -3.585938 0.574219 -3.074219 0.730469 -2.589844 C 0.878906 -2.101562 1.105469 -1.667969 1.402344 -1.289062 C 1.71875 -0.871094 2.085938 -0.546875 2.507812 -0.332031 C 2.929688 -0.109375 3.378906 0 3.84375 0 C 4.308594 0 4.75 -0.109375 5.171875 -0.332031 C 5.589844 -0.546875 5.960938 -0.871094 6.277344 -1.289062 C 6.578125 -1.667969 6.800781 -2.101562 6.957031 -2.589844 C 7.109375 -3.074219 7.191406 -3.585938 7.191406 -4.117188 C 7.191406 -4.648438 7.109375 -5.164062 6.957031 -5.648438 C 6.800781 -6.128906 6.578125 -6.570312 6.277344 -6.957031 Z M 3.84375 -1.644531 C 3.613281 -1.644531 3.386719 -1.710938 3.1875 -1.84375 C 2.980469 -1.976562 2.796875 -2.152344 2.648438 -2.375 C 2.492188 -2.597656 2.367188 -2.863281 2.273438 -3.164062 C 2.183594 -3.460938 2.140625 -3.777344 2.140625 -4.117188 C 2.140625 -4.449219 2.183594 -4.773438 2.273438 -5.074219 C 2.367188 -5.371094 2.492188 -5.628906 2.648438 -5.863281 C 2.796875 -6.085938 2.980469 -6.269531 3.1875 -6.402344 C 3.386719 -6.535156 3.613281 -6.601562 3.84375 -6.601562 C 4.078125 -6.601562 4.292969 -6.535156 4.5 -6.402344 C 4.699219 -6.269531 4.882812 -6.085938 5.03125 -5.863281 C 5.183594 -5.628906 5.304688 -5.371094 5.398438 -5.074219 C 5.488281 -4.773438 5.539062 -4.449219 5.539062 -4.117188 C 5.539062 -3.777344 5.488281 -3.460938 5.398438 -3.164062 C 5.304688 -2.863281 5.183594 -2.597656 5.03125 -2.375 C 4.882812 -2.152344 4.699219 -1.976562 4.5 -1.84375 C 4.292969 -1.710938 4.078125 -1.644531 3.84375 -1.644531 Z M 3.84375 -1.644531 "/></g></g></g><g fill="#545454" fill-opacity="1"><g transform="translate(66.454595, 42.63237)"><g><path d="M 6.277344 -6.957031 C 5.960938 -7.375 5.589844 -7.691406 5.171875 -7.914062 C 4.75 -8.128906 4.308594 -8.246094 3.84375 -8.246094 C 3.378906 -8.246094 2.929688 -8.128906 2.507812 -7.914062 C 2.085938 -7.691406 1.71875 -7.375 1.402344 -6.957031 C 1.105469 -6.570312 0.878906 -6.128906 0.730469 -5.648438 C 0.574219 -5.164062 0.5 -4.648438 0.5 -4.117188 C 0.5 -3.585938 0.574219 -3.074219 0.730469 -2.589844 C 0.878906 -2.101562 1.105469 -1.667969 1.402344 -1.289062 C 1.71875 -0.871094 2.085938 -0.546875 2.507812 -0.332031 C 2.929688 -0.109375 3.378906 0 3.84375 0 C 4.308594 0 4.75 -0.109375 5.171875 -0.332031 C 5.589844 -0.546875 5.960938 -0.871094 6.277344 -1.289062 C 6.578125 -1.667969 6.800781 -2.101562 6.957031 -2.589844 C 7.109375 -3.074219 7.191406 -3.585938 7.191406 -4.117188 C 7.191406 -4.648438 7.109375 -5.164062 6.957031 -5.648438 C 6.800781 -6.128906 6.578125 -6.570312 6.277344 -6.957031 Z M 3.84375 -1.644531 C 3.613281 -1.644531 3.386719 -1.710938 3.1875 -1.84375 C 2.980469 -1.976562 2.796875 -2.152344 2.648438 -2.375 C 2.492188 -2.597656 2.367188 -2.863281 2.273438 -3.164062 C 2.183594 -3.460938 2.140625 -3.777344 2.140625 -4.117188 C 2.140625 -4.449219 2.183594 -4.773438 2.273438 -5.074219 C 2.367188 -5.371094 2.492188 -5.628906 2.648438 -5.863281 C 2.796875 -6.085938 2.980469 -6.269531 3.1875 -6.402344 C 3.386719 -6.535156 3.613281 -6.601562 3.84375 -6.601562 C 4.078125 -6.601562 4.292969 -6.535156 4.5 -6.402344 C 4.699219 -6.269531 4.882812 -6.085938 5.03125 -5.863281 C 5.183594 -5.628906 5.304688 -5.371094 5.398438 -5.074219 C 5.488281 -4.773438 5.539062 -4.449219 5.539062 -4.117188 C 5.539062 -3.777344 5.488281 -3.460938 5.398438 -3.164062 C 5.304688 -2.863281 5.183594 -2.597656 5.03125 -2.375 C 4.882812 -2.152344 4.699219 -1.976562 4.5 -1.84375 C 4.292969 -1.710938 4.078125 -1.644531 3.84375 -1.644531 Z M 3.84375 -1.644531 "/></g></g></g><g fill="#545454" fill-opacity="1"><g transform="translate(74.144359, 42.63237)"><g><path d="M 7.109375 -0.234375 L 6.949219 -0.355469 C 6.835938 -0.433594 6.734375 -0.53125 6.652344 -0.664062 L 4.335938 -3.945312 C 4.285156 -3.996094 4.269531 -4.0625 4.269531 -4.128906 C 4.269531 -4.195312 4.285156 -4.25 4.335938 -4.308594 L 6.652344 -7.597656 C 6.734375 -7.707031 6.835938 -7.8125 6.957031 -7.914062 L 7.109375 -8.023438 C 7.160156 -8.0625 7.175781 -8.121094 7.148438 -8.1875 C 7.117188 -8.230469 7.074219 -8.253906 7.035156 -8.253906 L 4.875 -8.253906 C 4.816406 -8.253906 4.773438 -8.230469 4.757812 -8.179688 C 4.734375 -8.128906 4.734375 -8.089844 4.765625 -8.046875 L 4.773438 -8.039062 C 4.824219 -7.972656 4.832031 -7.90625 4.792969 -7.839844 L 3.148438 -5.496094 C 3.097656 -5.4375 3.046875 -5.421875 2.980469 -5.4375 C 2.914062 -5.457031 2.890625 -5.503906 2.890625 -5.582031 L 2.890625 -7.582031 C 2.890625 -7.746094 2.949219 -7.90625 3.074219 -8.039062 C 3.105469 -8.078125 3.113281 -8.128906 3.097656 -8.179688 C 3.074219 -8.230469 3.03125 -8.253906 2.980469 -8.253906 L 1.121094 -8.253906 C 1.0625 -8.253906 1.019531 -8.230469 1.003906 -8.179688 C 0.980469 -8.128906 0.988281 -8.089844 1.03125 -8.046875 C 1.171875 -7.890625 1.246094 -7.707031 1.246094 -7.492188 L 1.246094 -0.722656 C 1.246094 -0.53125 1.179688 -0.367188 1.054688 -0.234375 L 1.03125 -0.207031 C 0.996094 -0.15625 0.996094 -0.117188 1.019531 -0.0664062 C 1.039062 -0.015625 1.078125 0 1.136719 0 L 2.996094 0 C 3.046875 0 3.089844 -0.0234375 3.105469 -0.0742188 C 3.121094 -0.125 3.121094 -0.167969 3.089844 -0.207031 C 2.957031 -0.347656 2.890625 -0.515625 2.890625 -0.699219 L 2.890625 -2.683594 C 2.890625 -2.75 2.914062 -2.789062 2.980469 -2.816406 C 3.046875 -2.832031 3.097656 -2.816406 3.148438 -2.757812 L 4.792969 -0.421875 C 4.832031 -0.339844 4.824219 -0.273438 4.773438 -0.222656 L 4.765625 -0.207031 C 4.734375 -0.15625 4.734375 -0.117188 4.757812 -0.0664062 C 4.773438 -0.015625 4.816406 0 4.875 0 L 7.035156 0 C 7.082031 0 7.117188 -0.0234375 7.148438 -0.0742188 C 7.160156 -0.101562 7.160156 -0.125 7.160156 -0.15625 C 7.148438 -0.191406 7.132812 -0.214844 7.109375 -0.234375 Z M 7.109375 -0.234375 "/></g></g></g><g fill="#545454" fill-opacity="1"><g transform="translate(82.307468, 42.63237)"><g><path d="M 10.921875 -8.253906 L 9.132812 -8.253906 L 9.132812 -8.246094 L 9.132812 -8.253906 L 8.976562 -8.253906 C 8.917969 -8.253906 8.878906 -8.230469 8.859375 -8.179688 C 8.835938 -8.128906 8.835938 -8.089844 8.867188 -8.046875 L 8.902344 -8.011719 C 8.984375 -7.914062 9.011719 -7.8125 8.976562 -7.699219 L 7.605469 -2.957031 C 7.589844 -2.90625 7.558594 -2.882812 7.507812 -2.882812 C 7.457031 -2.882812 7.425781 -2.90625 7.40625 -2.957031 L 6.808594 -5.039062 C 6.769531 -5.15625 6.792969 -5.265625 6.882812 -5.355469 L 6.902344 -5.371094 C 6.925781 -5.414062 6.925781 -5.457031 6.902344 -5.503906 C 6.875 -5.546875 6.835938 -5.570312 6.785156 -5.570312 L 4.757812 -5.570312 C 4.707031 -5.570312 4.667969 -5.546875 4.640625 -5.503906 C 4.617188 -5.457031 4.617188 -5.414062 4.648438 -5.371094 L 4.667969 -5.355469 C 4.75 -5.257812 4.773438 -5.15625 4.742188 -5.039062 L 4.144531 -2.957031 C 4.128906 -2.90625 4.09375 -2.882812 4.042969 -2.882812 C 3.984375 -2.882812 3.953125 -2.90625 3.945312 -2.957031 L 2.574219 -7.699219 C 2.542969 -7.8125 2.566406 -7.914062 2.648438 -8.011719 L 2.683594 -8.046875 C 2.707031 -8.089844 2.707031 -8.128906 2.691406 -8.179688 C 2.664062 -8.230469 2.625 -8.253906 2.574219 -8.253906 L 0.632812 -8.253906 C 0.574219 -8.253906 0.53125 -8.230469 0.515625 -8.179688 C 0.488281 -8.128906 0.488281 -8.089844 0.523438 -8.046875 C 0.738281 -7.847656 0.886719 -7.597656 0.972656 -7.316406 L 2.929688 -0.539062 C 2.964844 -0.414062 2.929688 -0.308594 2.847656 -0.207031 C 2.816406 -0.15625 2.816406 -0.117188 2.839844 -0.0664062 C 2.863281 -0.015625 2.90625 0 2.957031 0 L 5.125 0 C 5.171875 0 5.207031 -0.015625 5.230469 -0.0664062 C 5.257812 -0.117188 5.257812 -0.15625 5.230469 -0.207031 L 5.222656 -0.207031 C 5.140625 -0.289062 5.117188 -0.398438 5.148438 -0.523438 L 5.671875 -2.332031 C 5.6875 -2.382812 5.722656 -2.410156 5.769531 -2.410156 C 5.820312 -2.410156 5.863281 -2.382812 5.878906 -2.332031 L 6.394531 -0.53125 C 6.425781 -0.40625 6.402344 -0.300781 6.320312 -0.214844 L 6.3125 -0.207031 C 6.277344 -0.15625 6.277344 -0.117188 6.304688 -0.0664062 C 6.328125 -0.015625 6.371094 0 6.417969 0 L 8.601562 0 C 8.652344 0 8.695312 -0.015625 8.710938 -0.0664062 C 8.726562 -0.117188 8.726562 -0.15625 8.695312 -0.207031 C 8.601562 -0.289062 8.578125 -0.398438 8.621094 -0.515625 L 10.578125 -7.324219 C 10.621094 -7.457031 10.679688 -7.589844 10.753906 -7.714844 C 10.820312 -7.839844 10.910156 -7.945312 11.027344 -8.046875 C 11.054688 -8.089844 11.054688 -8.128906 11.035156 -8.179688 C 11.011719 -8.230469 10.96875 -8.253906 10.921875 -8.253906 Z M 10.921875 -8.253906 "/></g></g></g><g fill="#545454" fill-opacity="1"><g transform="translate(93.858729, 42.63237)"><g><path d="M 2.875 -0.730469 L 2.875 -7.523438 C 2.875 -7.722656 2.941406 -7.898438 3.074219 -8.046875 C 3.097656 -8.089844 3.097656 -8.128906 3.082031 -8.179688 C 3.054688 -8.230469 3.015625 -8.253906 2.964844 -8.253906 L 1.128906 -8.253906 C 1.070312 -8.253906 1.03125 -8.230469 1.011719 -8.179688 C 0.988281 -8.128906 0.988281 -8.089844 1.019531 -8.046875 C 1.152344 -7.898438 1.230469 -7.722656 1.230469 -7.523438 L 1.230469 -0.730469 C 1.230469 -0.53125 1.152344 -0.355469 1.019531 -0.207031 C 0.988281 -0.15625 0.988281 -0.117188 1.011719 -0.0664062 C 1.03125 -0.015625 1.070312 0 1.128906 0 L 2.964844 0 C 3.015625 0 3.054688 -0.015625 3.082031 -0.0664062 C 3.097656 -0.117188 3.097656 -0.15625 3.074219 -0.207031 C 3.007812 -0.273438 2.957031 -0.355469 2.921875 -0.449219 C 2.890625 -0.539062 2.875 -0.632812 2.875 -0.730469 Z M 2.875 -0.730469 "/></g></g></g><g fill="#545454" fill-opacity="1"><g transform="translate(97.961043, 42.63237)"><g><path d="M 6.824219 -6.210938 L 6.785156 -6.261719 C 6.667969 -6.378906 6.59375 -6.511719 6.542969 -6.660156 C 6.394531 -7.125 6.085938 -7.507812 5.636719 -7.804688 C 5.390625 -7.964844 5.105469 -8.089844 4.792969 -8.171875 C 4.476562 -8.253906 4.152344 -8.296875 3.804688 -8.296875 C 3.453125 -8.296875 3.113281 -8.246094 2.789062 -8.164062 C 2.464844 -8.078125 2.175781 -7.957031 1.917969 -7.796875 C 1.570312 -7.582031 1.3125 -7.324219 1.128906 -7.015625 C 0.945312 -6.710938 0.863281 -6.378906 0.863281 -6.011719 C 0.863281 -5.316406 1.1875 -4.71875 1.851562 -4.226562 C 2.085938 -4.042969 2.332031 -3.894531 2.609375 -3.761719 C 2.882812 -3.628906 3.164062 -3.496094 3.445312 -3.378906 C 3.613281 -3.296875 3.796875 -3.214844 3.976562 -3.128906 C 4.160156 -3.046875 4.328125 -2.957031 4.476562 -2.875 C 4.625 -2.78125 4.75 -2.691406 4.851562 -2.597656 C 4.949219 -2.5 5 -2.410156 5 -2.316406 C 5 -2.199219 4.957031 -2.09375 4.875 -2.007812 C 4.792969 -1.925781 4.683594 -1.851562 4.558594 -1.800781 C 4.433594 -1.753906 4.300781 -1.710938 4.152344 -1.6875 C 4.003906 -1.652344 3.871094 -1.644531 3.738281 -1.644531 C 3.570312 -1.644531 3.40625 -1.660156 3.222656 -1.703125 C 3.039062 -1.734375 2.882812 -1.800781 2.757812 -1.894531 C 2.722656 -1.917969 2.699219 -1.953125 2.699219 -1.992188 C 2.691406 -2.035156 2.699219 -2.066406 2.730469 -2.101562 L 2.742188 -2.109375 C 2.765625 -2.152344 2.765625 -2.191406 2.75 -2.242188 C 2.722656 -2.292969 2.683594 -2.316406 2.632812 -2.316406 L 0.796875 -2.316406 C 0.738281 -2.316406 0.699219 -2.292969 0.679688 -2.242188 C 0.65625 -2.191406 0.65625 -2.152344 0.6875 -2.109375 L 0.722656 -2.074219 C 0.839844 -1.941406 0.914062 -1.800781 0.964844 -1.660156 C 1.113281 -1.179688 1.410156 -0.796875 1.875 -0.507812 C 2.125 -0.339844 2.417969 -0.214844 2.730469 -0.132812 C 3.046875 -0.0429688 3.386719 0 3.738281 0 C 4.152344 0 4.542969 -0.0585938 4.898438 -0.175781 C 5.257812 -0.289062 5.5625 -0.449219 5.820312 -0.65625 C 6.078125 -0.855469 6.277344 -1.105469 6.425781 -1.386719 C 6.570312 -1.667969 6.644531 -1.976562 6.644531 -2.316406 C 6.644531 -2.675781 6.558594 -2.988281 6.402344 -3.253906 C 6.246094 -3.519531 6.046875 -3.753906 5.796875 -3.953125 C 5.546875 -4.152344 5.28125 -4.316406 4.984375 -4.46875 C 4.683594 -4.617188 4.394531 -4.75 4.109375 -4.882812 C 3.917969 -4.964844 3.730469 -5.050781 3.539062 -5.140625 C 3.347656 -5.222656 3.171875 -5.316406 3.023438 -5.414062 C 2.875 -5.503906 2.75 -5.605469 2.648438 -5.703125 C 2.550781 -5.804688 2.507812 -5.90625 2.507812 -6.011719 C 2.507812 -6.105469 2.542969 -6.1875 2.625 -6.269531 C 2.699219 -6.351562 2.796875 -6.417969 2.921875 -6.476562 C 3.039062 -6.527344 3.179688 -6.570312 3.339844 -6.601562 C 3.488281 -6.636719 3.644531 -6.652344 3.804688 -6.652344 C 3.984375 -6.652344 4.167969 -6.625 4.335938 -6.59375 C 4.5 -6.550781 4.632812 -6.492188 4.75 -6.417969 C 4.785156 -6.394531 4.808594 -6.359375 4.808594 -6.320312 C 4.808594 -6.277344 4.800781 -6.246094 4.773438 -6.21875 L 4.773438 -6.210938 C 4.742188 -6.160156 4.742188 -6.121094 4.765625 -6.078125 C 4.785156 -6.027344 4.824219 -6.011719 4.882812 -6.011719 L 6.71875 -6.011719 C 6.769531 -6.011719 6.808594 -6.027344 6.835938 -6.078125 C 6.851562 -6.121094 6.851562 -6.160156 6.824219 -6.210938 Z M 6.824219 -6.210938 "/></g></g></g><g fill="#545454" fill-opacity="1"><g transform="translate(105.476419, 42.63237)"><g><path d="M 6.046875 -8.3125 C 5.90625 -8.179688 5.738281 -8.121094 5.554688 -8.121094 L 1.128906 -8.121094 C 1.070312 -8.121094 1.03125 -8.097656 1.011719 -8.046875 C 0.988281 -7.996094 0.988281 -7.957031 1.019531 -7.914062 L 1.046875 -7.890625 C 1.179688 -7.738281 1.246094 -7.566406 1.246094 -7.367188 L 1.246094 -0.621094 C 1.246094 -0.523438 1.230469 -0.433594 1.195312 -0.339844 C 1.164062 -0.25 1.113281 -0.167969 1.046875 -0.101562 L 1.019531 -0.0742188 C 0.988281 -0.0234375 0.988281 0.015625 1.011719 0.0664062 C 1.03125 0.117188 1.070312 0.132812 1.128906 0.132812 L 5.554688 0.132812 C 5.738281 0.132812 5.90625 0.199219 6.046875 0.324219 C 6.085938 0.367188 6.136719 0.375 6.1875 0.347656 C 6.238281 0.332031 6.269531 0.289062 6.269531 0.222656 L 6.269531 -1.628906 C 6.269531 -1.675781 6.246094 -1.71875 6.195312 -1.742188 C 6.144531 -1.761719 6.09375 -1.753906 6.0625 -1.71875 C 5.914062 -1.578125 5.738281 -1.511719 5.539062 -1.511719 L 3.097656 -1.511719 C 3.039062 -1.511719 2.988281 -1.527344 2.949219 -1.570312 C 2.90625 -1.601562 2.890625 -1.652344 2.890625 -1.71875 L 2.890625 -2.964844 C 2.890625 -3.023438 2.90625 -3.074219 2.949219 -3.113281 C 2.988281 -3.148438 3.039062 -3.171875 3.097656 -3.171875 L 3.828125 -3.171875 C 4.027344 -3.171875 4.203125 -3.097656 4.351562 -2.964844 C 4.394531 -2.929688 4.433594 -2.929688 4.484375 -2.957031 C 4.535156 -2.980469 4.558594 -3.023438 4.558594 -3.074219 L 4.558594 -4.917969 C 4.558594 -4.964844 4.535156 -5 4.484375 -5.023438 C 4.433594 -5.050781 4.394531 -5.050781 4.351562 -5.023438 C 4.203125 -4.882812 4.027344 -4.816406 3.828125 -4.816406 L 3.097656 -4.816406 C 3.039062 -4.816406 2.988281 -4.832031 2.949219 -4.875 C 2.90625 -4.90625 2.890625 -4.957031 2.890625 -5.023438 L 2.890625 -6.269531 C 2.890625 -6.328125 2.90625 -6.378906 2.949219 -6.417969 C 2.988281 -6.453125 3.039062 -6.476562 3.097656 -6.476562 L 5.539062 -6.476562 C 5.738281 -6.476562 5.914062 -6.402344 6.0625 -6.269531 C 6.09375 -6.226562 6.144531 -6.21875 6.195312 -6.246094 C 6.246094 -6.261719 6.269531 -6.304688 6.269531 -6.359375 L 6.269531 -8.222656 C 6.269531 -8.269531 6.238281 -8.3125 6.1875 -8.335938 C 6.136719 -8.355469 6.085938 -8.347656 6.046875 -8.3125 Z M 6.046875 -8.3125 "/></g></g></g></svg>